# xmcd
#
# Track frame offsets:
#	150
#	19785
#	47138
#	67990
#	88093
#	103981
#	118616
#	136751
#	152931
#	175477
#	194088
#	217124
#	237003
#
# Disc length: 3659 seconds
#
# Revision: 1
# Processed by: cddbd v1.5.2PL0 Copyright (c) Steve Scherf et al.
# Submitted via: audiograbber 1.83.01
#
DISCID=be0e490d
DTITLE=Marco Marchi And The Mojo Workers - Here And Now
DYEAR=2014
DGENRE=Blues
TTITLE0=Take A Look At Yourself
TTITLE1=Diving Duck Blues
TTITLE2=Sunday Morning
TTITLE3=Just A Closer Walk With Thee
TTITLE4=One More Chance With You
TTITLE5=Sitting On The Top Of The World
TTITLE6=Kind Hearted Woman
TTITLE7=All Of Me
TTITLE8=The Big Tree
TTITLE9=Cigarette Blues
TTITLE10=Relax Baby
TTITLE11=Your Feet's Too Big
TTITLE12=Amazing Grace
EXTD=
EXTT0=
EXTT1=
EXTT2=
EXTT3=
EXTT4=
EXTT5=
EXTT6=
EXTT7=
EXTT8=
EXTT9=
EXTT10=
EXTT11=
EXTT12=
PLAYORDER=
